<?xml version="1.0" standalone="no"?>
<!DOCTYPE svg PUBLIC "-//W3C//DTD SVG 20010904//EN"
 "http://www.w3.org/TR/2001/REC-SVG-20010904/DTD/svg10.dtd">
<svg version="1.0" xmlns="http://www.w3.org/2000/svg"
 width="920.000000pt" height="661.000000pt" viewBox="0 0 920.000000 661.000000"
 preserveAspectRatio="xMidYMid meet">

<g transform="translate(0.000000,661.000000) scale(0.100000,-0.100000)"
fill="#61daaa" stroke="none">
<path d="M5635 5700 c-93 -13 -171 -33 -275 -68 -167 -58 -235 -86 -244 -101
-9 -14 -16 -16 99 23 284 94 471 115 855 95 105 -6 168 -5 174 1 15 15 6 19
-91 40 -136 30 -356 34 -518 10z"/>
<path d="M5948 5575 c-54 -8 -173 -36 -265 -64 -259 -77 -339 -93 -523 -102
-91 -5 -205 -14 -255 -19 -49 -6 -174 -15 -277 -20 -251 -13 -270 -21 -370
-168 -51 -76 -101 -202 -114 -290 -3 -26 -13 -59 -20 -74 -16 -30 -49 -52 -64
-43 -11 7 -931 6 -1050 0 -63 -4 -218 -6 -310 -5 -67 1 -370 -65 -531 -116
-206 -65 -448 -202 -577 -327 -70 -67 -209 -236 -256 -310 -60 -94 -132 -265
-176 -417 -23 -78 -39 -144 -37 -147 3 -2 8 6 12 19 35 112 150 337 255 494
112 168 356 374 555 469 88 42 229 89 365 122 98 24 117 25 275 20 133 -4 193
-11 276 -30 409 -97 706 -280 928 -571 39 -52 86 -118 104 -148 93 -156 267
-608 267 -697 0 -14 5 -42 10 -61 14 -48 57 -349 71 -500 17 -181 -8 -521 -51
-678 -18 -69 -111 -344 -137 -407 -14 -33 -55 -115 -91 -183 -55 -103 -86
-145 -193 -267 -187 -210 -370 -362 -534 -442 l-90 -44 140 6 c77 3 190 12
250 20 61 7 143 17 184 21 103 9 127 17 174 62 l42 38 155 13 c460 37 499 43
666 95 60 19 170 64 245 101 l136 66 721 -1 c398 0 812 4 924 10 434 23 508
46 667 209 107 110 124 138 151 256 16 69 21 133 24 333 3 136 10 447 17 692
8 316 8 510 1 670 -6 124 -9 417 -6 651 l4 426 -25 82 c-31 105 -53 140 -118
188 -96 71 -140 95 -221 123 -45 15 -124 42 -176 59 -52 18 -141 55 -197 82
-56 27 -105 49 -109 49 -18 0 -152 67 -185 92 -63 48 -128 33 -159 -34 -25
-56 -25 -88 5 -260 13 -79 27 -168 30 -198 4 -30 17 -145 30 -255 13 -110 29
-247 36 -305 7 -58 12 -212 13 -343 1 -224 2 -239 20 -253 14 -10 51 -14 132
-14 179 0 221 -15 285 -100 40 -54 56 -90 69 -157 23 -116 -24 -279 -93 -322
-43 -26 -165 -51 -253 -51 -81 0 -84 16 -9 49 47 20 58 30 76 70 26 56 35 161
20 218 -13 47 -89 146 -129 167 -15 8 -44 31 -65 50 -21 20 -41 36 -44 36 -6
0 4 -449 11 -510 10 -82 29 -479 23 -494 -4 -9 -17 -16 -30 -16 -44 0 -86 -21
-106 -53 -57 -93 -73 -213 -50 -374 12 -80 27 -109 67 -124 16 -6 22 -17 22
-38 0 -38 -116 -148 -203 -192 -61 -32 -66 -32 -322 -50 -143 -10 -280 -20
-305 -23 l-45 -6 35 27 c208 167 425 424 525 623 54 109 175 405 194 475 73
276 62 659 -26 894 -48 130 -75 196 -88 217 -10 16 -13 64 -12 190 2 230 -38
470 -119 710 -51 153 -83 210 -156 281 -75 73 -144 108 -248 123 -41 6 -89 13
-106 16 -83 12 -157 110 -191 252 -17 71 -16 74 2 109 70 129 364 256 715 308
192 29 195 33 35 33 -82 0 -194 -6 -247 -13z m-1717 -951 c66 -27 129 -68 129
-85 0 -5 -99 -9 -250 -9 -274 0 -283 2 -345 62 -16 16 -40 31 -52 34 -63 16
11 24 221 24 227 0 234 -1 297 -26z m603 -17 c3 4 6 1 6 -7 0 -10 4 -10 17 1
14 12 16 12 8 0 -6 -11 -4 -13 7 -8 34 13 208 -133 318 -268 177 -216 332
-543 415 -872 149 -594 116 -1289 -87 -1813 -23 -58 -47 -109 -55 -113 -7 -5
-11 -12 -8 -17 8 -13 -25 -60 -42 -60 -8 0 -11 -5 -7 -12 5 -10 4 -10 -5 -2
-9 8 -3 30 23 91 283 661 295 1560 29 2232 -142 360 -360 655 -600 812 -88 57
-102 69 -57 46 17 -9 34 -13 38 -10z m-276 -201 c30 -26 98 -143 88 -153 -7
-8 -151 -20 -342 -29 l-151 -7 -61 81 c-34 45 -57 84 -52 87 6 3 65 11 132 16
68 6 157 14 198 19 137 14 156 12 188 -14z m229 -349 c10 -13 29 -47 42 -75
24 -51 24 -52 5 -67 -10 -8 -28 -15 -39 -15 -11 0 -74 -9 -140 -19 -66 -11
-154 -22 -196 -26 l-77 -6 -45 86 c-26 47 -44 92 -41 99 4 10 34 16 102 21 53
4 131 11 172 15 41 4 103 8 137 9 53 1 64 -2 80 -22z m174 -422 c15 -38 28
-89 28 -112 l1 -41 -67 -11 c-38 -5 -102 -13 -143 -16 -41 -4 -95 -11 -120
-16 -64 -14 -86 -6 -94 34 -4 19 -18 63 -31 97 -14 35 -25 69 -25 75 0 7 30
17 73 24 184 29 265 39 306 38 l43 -2 29 -70z m105 -416 c28 -29 43 -80 44
-150 l0 -46 -112 -7 c-152 -8 -324 -10 -335 -3 -13 8 -36 170 -28 195 5 17 18
22 68 26 34 3 78 8 97 10 19 2 81 3 138 2 95 -1 104 -3 128 -27z m56 -416 c45
-5 48 -7 58 -41 11 -43 13 -172 2 -188 -4 -6 -76 -16 -167 -23 -88 -6 -185
-15 -216 -18 l-57 -6 -11 70 c-7 38 -11 93 -9 123 3 50 5 54 33 63 17 6 86 13
155 16 69 3 134 7 145 8 11 1 41 -1 67 -4z m21 -576 c-3 -38 -46 -151 -67
-174 -11 -11 -431 -41 -442 -31 -2 3 2 34 10 69 8 35 17 85 21 112 l6 47 127
1 c70 1 165 4 212 9 135 12 135 12 133 -33z m-183 -482 c0 -3 -9 -23 -19 -43
-32 -63 -67 -72 -298 -79 -174 -5 -171 -7 -128 77 l25 50 210 0 c116 0 210 -2
210 -5z m-244 -426 c3 -6 1 -21 -6 -33 -24 -45 -400 -96 -497 -68 l-21 7 22
28 c21 26 31 29 122 38 54 5 151 16 214 23 150 18 158 18 166 5z m-351 -344
c-44 -34 -213 -65 -350 -65 l-99 0 20 20 c24 25 98 38 273 49 194 12 179 13
156 -4z"/>
<path d="M6730 5208 c-23 -38 -25 -57 -8 -92 31 -69 -86 -87 -264 -42 -52 13
-159 47 -238 75 -204 72 -350 96 -455 72 -28 -6 -27 -7 19 -14 27 -4 63 -7 80
-7 64 0 249 -50 383 -104 76 -30 165 -62 196 -70 102 -27 291 -57 335 -55 47
3 62 -9 62 -51 0 -60 49 -92 223 -146 247 -77 401 -96 592 -73 105 12 113 18
145 113 18 56 20 70 10 108 -7 24 -14 46 -16 50 -8 13 -42 -5 -49 -25 l-8 -22
-4 23 c-3 17 -11 22 -37 22 -19 0 -39 -7 -46 -15 -15 -18 -31 -20 -27 -3 2 15
-56 12 -61 -3 -6 -14 -22 -11 -22 5 0 8 -16 15 -42 19 -34 5 -44 2 -60 -16
l-20 -22 5 22 c3 15 -1 23 -17 27 -33 9 -66 7 -66 -4 0 -5 -5 -10 -11 -10 -6
0 -9 6 -6 14 8 20 -54 29 -69 10 -15 -19 -21 -18 -27 6 -6 23 -45 28 -65 8 -9
-9 -12 -9 -12 3 0 22 -67 42 -74 23 -8 -20 -27 -17 -24 2 5 26 -51 42 -67 20
-18 -24 -26 -20 -19 9 5 19 2 25 -10 25 -19 0 -22 40 -4 58 17 17 -4 15 -27
-2 -25 -18 -40 -12 -103 46 -30 26 -58 48 -63 48 -5 0 -18 -15 -29 -32z"/>
<path d="M7890 4703 c0 -3 25 -32 56 -66 30 -33 67 -85 80 -116 49 -110 82
-270 86 -421 2 -73 1 -76 -40 -134 -43 -61 -54 -106 -26 -106 8 0 35 5 60 11
65 17 120 -1 139 -44 36 -82 44 -144 49 -372 11 -468 13 -1265 3 -1429 -9
-152 -8 -177 8 -243 16 -62 17 -81 7 -124 -14 -57 -69 -179 -81 -179 -10 0
-21 83 -21 155 0 28 -5 57 -10 65 -7 11 -10 5 -10 -25 0 -22 -7 -87 -15 -145
-24 -166 -88 -274 -195 -327 -25 -12 -108 -33 -185 -48 -140 -26 -209 -51
-110 -41 28 3 90 8 139 11 106 7 227 43 283 84 49 35 99 115 113 179 7 28 34
81 67 131 74 111 97 183 87 276 -16 143 8 1025 31 1110 8 33 18 116 22 185 5
113 3 135 -20 225 -14 55 -28 141 -31 190 -6 125 -53 376 -83 451 -21 54 -30
65 -63 78 l-38 15 -7 93 c-11 150 -38 267 -81 349 -43 81 -102 164 -130 183
-23 16 -84 37 -84 29z"/>
<path d="M6244 4576 c-30 -22 -27 -147 4 -199 29 -46 64 -57 100 -30 35 26 46
74 32 134 -14 56 -35 79 -25 27 3 -18 1 -47 -5 -63 l-12 -30 -11 25 c-5 14
-18 42 -29 63 -11 23 -16 48 -12 62 7 29 -11 33 -42 11z"/>
<path d="M2286 4493 c-50 -7 -122 -17 -161 -23 -215 -33 -499 -244 -674 -499
-64 -93 -171 -294 -171 -320 0 -9 -6 -25 -14 -36 -26 -39 -88 -265 -115 -425
-34 -197 -46 -391 -32 -537 15 -169 46 -379 65 -439 8 -27 30 -109 50 -183 30
-111 128 -360 156 -396 4 -5 40 -66 79 -134 130 -225 272 -404 416 -521 108
-88 138 -100 59 -24 -80 78 -173 184 -225 259 -58 83 -112 176 -105 182 3 3
43 -30 88 -74 106 -103 301 -259 370 -297 l53 -29 -80 84 c-44 46 -83 86 -87
87 -5 2 -8 11 -8 19 0 11 7 14 26 9 25 -7 23 -3 -20 46 -72 81 -165 197 -177
221 -6 12 16 -5 50 -37 63 -62 89 -68 57 -13 l-18 32 29 -26 c118 -108 218
-186 307 -238 96 -57 264 -136 272 -128 2 2 -19 20 -47 41 -53 41 -209 203
-209 217 0 23 38 3 101 -54 38 -34 102 -84 142 -110 124 -83 426 -222 443
-204 4 3 -38 29 -92 57 -232 121 -486 337 -645 550 -87 116 -195 318 -254 475
-20 55 -45 120 -56 145 -44 110 -65 233 -74 441 -8 163 -5 191 46 500 43 267
159 489 384 742 139 156 327 282 507 341 134 43 388 63 463 37 26 -9 22 -4
-25 40 -94 86 -339 192 -504 219 -93 15 -269 16 -370 3z"/>
<path d="M6341 3936 c-21 -22 -23 -33 -19 -90 5 -81 31 -116 88 -116 49 0 70
24 70 82 0 39 -23 118 -34 118 -2 0 -2 -26 1 -58 4 -46 2 -60 -12 -72 -29 -24
-38 9 -39 138 0 30 -26 29 -55 -2z"/>
<path d="M1046 2698 c2 -29 5 -120 8 -203 10 -371 109 -781 258 -1080 116
-231 356 -509 573 -664 266 -189 553 -255 880 -202 230 38 400 92 518 164 37
23 76 47 85 52 164 94 291 202 413 353 162 199 292 483 349 762 40 200 60 554
31 583 -15 15 -19 -18 -25 -188 -5 -169 -29 -314 -82 -504 -57 -202 -143 -372
-266 -526 -26 -33 -67 -84 -90 -114 -24 -29 -96 -104 -160 -165 -99 -95 -135
-122 -230 -174 -196 -106 -335 -146 -560 -160 -125 -8 -361 7 -435 27 -60 16
-244 110 -328 166 -206 138 -478 433 -571 617 -15 29 -46 87 -71 129 -106 186
-214 601 -273 1059 -14 108 -28 149 -24 68z"/>
</g>
</svg>
